#!OML:ASF G:\JayActor3\Patient Classification 1\Patient 1\Session 5\male.ASF
:FULLY-SPECIFIED
:DEGREES
1263
root 33.8782 16.4161 -23.754 -191.215 61.5622 -189.075
lowerback 10.3339 0.87819 -3.87039
upperback 2.08899 0.796145 -2.66886
thorax -3.62635 0.491208 -0.70719
lowerneck 2.41643 -0.40635 0.980448
upperneck 3.78271 -0.523496 4.00971
head 0.766708 -0.176477 1.06816
rclavicle 2.71341e-014 -3.97569e-015
rhumerus -34.4782 -12.0758 -86.6744
rradius 18.2808
rwrist 15.6093
rhand -21.5844 -5.53791
rfingers 7.12502
rthumb 4.81005 -35.4633
lclavicle 2.71341e-014 -3.97569e-015
lhumerus -29.5226 -13.2015 93.3924
lradius 1.39557
lwrist 43.495
lhand -31.7233 13.0282
lfingers 7.12502
lthumb -4.98151 42.9497
rfemur -22.4341 5.91945 27.663
rtibia 45.8571
rfoot -19.6878 -19.2611
rtoes 1.10868
lfemur -1.9882 4.78733 -13.6221
ltibia 23.5207
lfoot -5.51829 8.18259
ltoes -19.7029
1264
root 34.0497 16.414 -23.8678 -191.591 62.2653 -189.299
lowerback 10.3424 0.884645 -3.83736
upperback 2.10937 0.808237 -2.65888
thorax -3.6098 0.496216 -0.716755
lowerneck 2.43654 -0.40086 0.975876
upperneck 3.80527 -0.516659 4.00539
head 0.77021 -0.173039 1.06765
rclavicle 4.65156e-014 2.0276e-014
rhumerus -34.5615 -12.1449 -86.6468
rradius 18.2246
rwrist 15.6864
rhand -21.5426 -5.55913
rfingers 7.12502
rthumb 4.85047 -35.4836
lclavicle 4.65156e-014 2.0276e-014
lhumerus -29.3647 -12.6606 93.0507
lradius 1.47105
lwrist 42.866
lhand -31.799 13.0614
lfingers 7.12502
lthumb -5.05467 42.9812
rfemur -22.334 5.60831 27.7618
rtibia 44.6348
rfoot -20.0864 -19.6025
rtoes 2.27666
lfemur -2.10519 4.79149 -13.7009
ltibia 25.0007
lfoot -5.45489 8.53245
ltoes -19.773
1265
root 34.2214 16.4102 -23.9792 -191.92 62.9437 -189.475
lowerback 10.3487 0.889951 -3.78117
upperback 2.1295 0.821329 -2.64115
thorax -3.59211 0.501345 -0.731317
lowerneck 2.46041 -0.399724 0.971857
upperneck 3.82312 -0.515359 3.9993
head 0.771716 -0.172518 1.06648
rclavicle 4.2192e-014 9.93923e-015
rhumerus -34.6414 -12.2147 -86.6134
rradius 18.172
rwrist 15.7636
rhand -21.5021 -5.57824
rfingers 7.12502
rthumb 4.88959 -35.5018
lclavicle 4.2192e-014 9.93923e-015
lhumerus -29.2252 -12.1385 92.7362
lradius 1.55734
lwrist 42.2511
lhand -31.8671 13.1018
lfingers 7.12502
lthumb -5.12041 43.0199
rfemur -22.1568 5.27167 27.9022
rtibia 43.3522
rfoot -20.3933 -19.8872
rtoes 3.45471
lfemur -2.31477 4.76527 -13.7705
ltibia 26.5285
lfoot -5.42595 8.82616
ltoes -19.8845
1266
root 34.3933 16.405 -24.088 -192.206 63.5984 -189.606
lowerback 10.3518 0.894901 -3.70732
upperback 2.1491 0.835947 -2.61559
thorax -3.57312 0.506933 -0.747755
lowerneck 2.48426 -0.402664 0.963265
upperneck 3.84062 -0.519603 3.99394
head 0.773231 -0.174834 1.06631
rclavicle -1.73937e-014 2.94201e-014
rhumerus -34.7157 -12.2851 -86.5724
rradius 18.1215
rwrist 15.8429
rhand -21.4645 -5.59676
rfingers 7.12502
rthumb 4.92587 -35.5195
lclavicle -1.73937e-014 2.94201e-014
lhumerus -29.1041 -11.6248 92.4456
lradius 1.65498
lwrist 41.6407
lhand -31.9289 13.153
lfingers 7.12502
lthumb -5.18003 43.0697
rfemur -21.9019 4.91773 28.0775
rtibia 42.0205
rfoot -20.6023 -20.1204
rtoes 4.62768
lfemur -2.61778 4.7126 -13.8344
ltibia 28.0883
lfoot -5.44663 9.06371
ltoes -19.9456
1267
root 34.5655 16.3988 -24.1944 -192.446 64.2303 -189.688
lowerback 10.3525 0.89983 -3.61526
upperback 2.16796 0.852541 -2.58259
thorax -3.55343 0.513225 -0.766892
lowerneck 2.50924 -0.409789 0.954538
upperneck 3.85785 -0.52935 3.98738
head 0.774562 -0.179916 1.0658
rclavicle -4.43787e-014 2.38542e-014
rhumerus -34.784 -12.3584 -86.5244
rradius 18.0731
rwrist 15.9258
rhand -21.43 -5.61434
rfingers 7.12502
rthumb 4.9592 -35.5363
lclavicle -4.43787e-014 2.38542e-014
lhumerus -29 -11.1384 92.1879
lradius 1.75367
lwrist 41.0585
lhand -31.9809 13.206
lfingers 7.12502
lthumb -5.23033 43.1214
rfemur -21.5692 4.55495 28.2857
rtibia 40.6515
rfoot -20.717 -20.3063
rtoes 5.78558
lfemur -3.01288 4.63683 -13.8906
ltibia 29.6639
lfoot -5.51451 9.24695
ltoes -19.9927
1268
root 34.738 16.3918 -24.2982 -192.636 64.8423 -189.72
lowerback 10.3487 0.905289 -3.50658
upperback 2.18629 0.871794 -2.54252
thorax -3.53177 0.52058 -0.788258
lowerneck 2.53159 -0.420193 0.939869
upperneck 3.8788 -0.543811 3.98587
head 0.777619 -0.18726 1.06788
rclavicle -6.36111e-015 2.26615e-014
rhumerus -34.8449 -12.43 -86.4729
rradius 18.0272
rwrist 16.0079
rhand -21.4026 -5.62998
rfingers 7.12502
rthumb 4.98559 -35.5513
lclavicle -6.36111e-015 2.26615e-014
lhumerus -28.9154 -10.6697 91.9582
lradius 1.86095
lwrist 40.4969
lhand -32.0259 13.2622
lfingers 7.12502
lthumb -5.27373 43.1766
rfemur -21.1606 4.19332 28.5227
rtibia 39.2579
rfoot -20.7459 -20.4438
rtoes 6.92387
lfemur -3.49754 4.54319 -13.9386
ltibia 31.238
lfoot -5.62782 9.37768
ltoes -20.0276
1269
root 34.911 16.3846 -24.3996 -192.776 65.4375 -189.702
lowerback 10.3381 0.912985 -3.38195
upperback 2.20435 0.896022 -2.49684
thorax -3.50646 0.53017 -0.813263
lowerneck 2.55252 -0.434359 0.92597
upperneck 3.90177 -0.563323 3.98408
head 0.781613 -0.197041 1.06976
rclavicle -1.86858e-014 1.43125e-014
rhumerus -34.8965 -12.5039 -86.4183
rradius 17.9834
rwrist 16.0957
rhand -21.3806 -5.64498
rfingers 7.12502
rthumb 5.00683 -35.5658
lclavicle -1.86858e-014 1.43125e-014
lhumerus -28.8479 -10.2217 91.7548
lradius 1.97103
lwrist 39.9566
lhand -32.0607 13.3254
lfingers 7.12502
lthumb -5.30736 43.2389
rfemur -20.6815 3.84118 28.7844
rtibia 37.8543
rfoot -20.691 -20.5403
rtoes 8.02409
lfemur -4.06573 4.43533 -13.98
ltibia 32.7917
lfoot -5.78362 9.44748
ltoes -20.0412
1270
root 35.0843 16.3771 -24.4985 -192.86 66.0157 -189.628
lowerback 10.3195 0.921587 -3.23921
upperback 2.2228 0.923743 -2.44532
thorax -3.47621 0.541249 -0.842665
lowerneck 2.57127 -0.45144 0.91192
upperneck 3.9258 -0.586798 3.98233
head 0.786374 -0.20875 1.07169
rclavicle 5.6107e-014 1.59028e-014
rhumerus -34.9382 -12.5733 -86.3648
rradius 17.9465
rwrist 16.1827
rhand -21.3627 -5.6593
rfingers 7.12502
rthumb 5.02414 -35.5797
lclavicle 5.6107e-014 1.59028e-014
lhumerus -28.7991 -9.79185 91.5769
lradius 2.0905
lwrist 39.4391
lhand -32.0903 13.4068
lfingers 7.12502
lthumb -5.33589 43.3196
rfemur -20.1382 3.49862 29.0685
rtibia 36.4556
rfoot -20.5491 -20.6039
rtoes 9.09836
lfemur -4.70982 4.31188 -14.0133
ltibia 34.3074
lfoot -5.97897 9.43142
ltoes -19.9941
1271
root 35.258 16.3698 -24.5952 -192.879 66.5796 -189.489
lowerback 10.2921 0.931043 -3.07548
upperback 2.24251 0.955245 -2.38792
thorax -3.43946 0.553953 -0.878018
lowerneck 2.58217 -0.470752 0.895671
upperneck 3.95559 -0.613677 3.98199
head 0.794301 -0.221975 1.07445
rclavicle -1.05356e-014 2.70347e-014
rhumerus -34.9661 -12.6335 -86.3162
rradius 17.9124
rwrist 16.264
rhand -21.3466 -5.66865
rfingers 7.12502
rthumb 5.03965 -35.5887
lclavicle -1.05356e-014 2.70347e-014
lhumerus -28.769 -9.3791 91.4227
lradius 2.219
lwrist 38.9421
lhand -32.1088 13.4906
lfingers 7.12502
lthumb -5.35373 43.4029
rfemur -19.5366 3.16773 29.3741
rtibia 35.0772
rfoot -20.3264 -20.6311
rtoes 10.1154
lfemur -5.41928 4.18001 -14.0371
ltibia 35.7692
lfoot -6.21097 9.34278
ltoes -19.9763
1272
root 35.432 16.363 -24.6896 -192.821 67.1331 -189.273
lowerback 10.2553 0.941823 -2.88508
upperback 2.26277 0.991612 -2.32424
thorax -3.39661 0.568787 -0.922242
lowerneck 2.58913 -0.49273 0.878412
upperneck 3.98825 -0.644311 3.98241
head 0.803852 -0.236974 1.07763
rclavicle -1.11071e-014 -2.10712e-014
rhumerus -34.9809 -12.6824 -86.2737
rradius 17.8839
rwrist 16.3354
rhand -21.3306 -5.67499
rfingers 7.12502
rthumb 5.05509 -35.5947
lclavicle -1.11071e-014 -2.10712e-014
lhumerus -28.7558 -8.98329 91.291
lradius 2.35005
lwrist 38.4648
lhand -32.1191 13.5839
lfingers 7.12502
lthumb -5.36372 43.496
rfemur -18.8834 2.85006 29.7023
rtibia 33.7338
rfoot -20.0313 -20.6245
rtoes 11.0648
lfemur -6.18909 4.04049 -14.0455
ltibia 37.1636
lfoot -6.46982 9.19832
ltoes -19.9678
1273
root 35.6062 16.3571 -24.782 -192.66 67.6813 -188.951
lowerback 10.2098 0.952782 -2.65795
upperback 2.28315 1.03221 -2.25155
thorax -3.34827 0.58536 -0.978085
lowerneck 2.59234 -0.515744 0.859288
upperneck 4.0219 -0.676522 3.98425
head 0.81439 -0.252722 1.08158
rclavicle 1.46107e-014 8.74653e-015
rhumerus -34.9823 -12.7207 -86.2371
rradius 17.8624
rwrist 16.3949
rhand -21.3117 -5.67836
rfingers 7.12502
rthumb 5.0734 -35.5976
lclavicle 1.46107e-014 8.74653e-015
lhumerus -28.764 -8.59988 91.18
lradius 2.49156
lwrist 38.0059
lhand -32.1165 13.6833
lfingers 7.12502
lthumb -5.36124 43.5955
rfemur -18.1885 2.54893 30.0614
rtibia 32.4444
rfoot -19.6768 -20.5932
rtoes 11.9421
lfemur -7.01179 3.90053 -14.0252
ltibia 38.4777
lfoot -6.76708 8.98152
ltoes -19.9353
